<?xml version="1.0" standalone="no"?><!DOCTYPE svg PUBLIC "-//W3C//DTD SVG 1.1//EN" "http://www.w3.org/Graphics/SVG/1.1/DTD/svg11.dtd"><svg t="1670681051042" class="icon" viewBox="0 0 1024 1024" version="1.1" xmlns="http://www.w3.org/2000/svg" p-id="6597" xmlns:xlink="http://www.w3.org/1999/xlink" width="200" height="200"><path d="M295.125333 665.770667a32 32 0 0 1-25.344-51.498667l127.701334-165.930667a31.914667 31.914667 0 0 1 45.098666-5.674666l120.32 94.464 105.258667-135.808a32 32 0 0 1 50.602667 39.210666l-124.970667 161.237334a31.914667 31.914667 0 0 1-45.056 5.589333l-120.277333-94.378667-107.989334 140.288a31.872 31.872 0 0 1-25.344 12.501334zM839.125333 296.277333a114.133333 114.133333 0 0 1-114.005333-114.005333c0-62.848 51.114667-114.005333 114.005333-114.005333s114.005333 51.157333 114.005334 114.005333a114.090667 114.090667 0 0 1-114.005334 114.005333z m0-164.010666a50.048 50.048 0 1 0 50.005334 50.005333c0-27.562667-22.442667-50.005333-50.005334-50.005333z" fill="#130F26" p-id="6598"></path><path d="M499.2 951.594667c-315.008 0-426.666667-111.658667-426.666667-426.666667s111.658667-426.666667 426.666667-426.666667c50.218667 0 93.354667 2.730667 131.882667 8.32a32 32 0 0 1-9.258667 63.317334c-35.413333-5.162667-75.562667-7.68-122.666667-7.68-277.930667 0-362.666667 84.736-362.666666 362.666666s84.736 362.666667 362.666666 362.666667c277.888 0 362.666667-84.736 362.666667-362.666667 0-48.085333-2.602667-88.874667-7.936-124.757333a32 32 0 0 1 63.36-9.386667c5.802667 38.997333 8.576 82.858667 8.576 134.144 0 315.050667-111.616 426.709333-426.624 426.709334z" fill="#130F26" p-id="6599"></path></svg>