<?xml version="1.0" standalone="no"?><!DOCTYPE svg PUBLIC "-//W3C//DTD SVG 1.1//EN" "http://www.w3.org/Graphics/SVG/1.1/DTD/svg11.dtd"><svg t="1652341166237" class="icon" viewBox="0 0 1024 1024" version="1.1" xmlns="http://www.w3.org/2000/svg" p-id="8398" xmlns:xlink="http://www.w3.org/1999/xlink" width="300" height="300"><defs> </defs><path d="M1003.698117 269.195022c-9.691733 0-17.548678 7.857968-17.548678 17.550725l0 562.424436c0 39.944757-32.44597 72.460312-72.376401 72.559573-6.385431-0.187265-72.779583-5.913687-72.779583-85.711104L840.993454 117.262704c0-29.521361-24.023136-53.537334-53.543474-53.537334L62.483588 63.72537c-32.592302 0-59.108213 26.51591-59.108213 59.108213l0 666.36574c0 92.432179 75.205842 167.638021 167.644161 167.638021l742.575446 0c59.360969-0.01228 107.653859-48.302099 107.653859-107.673302L1021.248841 286.739607C1021.242701 277.047874 1013.390873 269.195022 1003.698117 269.195022L1003.698117 269.195022 1003.698117 269.195022zM45.466006 784.29257 45.466006 129.639592c0-13.008268 10.577916-23.586185 23.588231-23.586185l712.229301 0c9.981329 0 18.11252 8.126075 18.11252 18.119683l0 719.040427c0 27.442002 10.509355 52.485375 27.713178 71.293743L175.68172 914.50726C103.883487 914.50726 45.466006 856.100012 45.466006 784.29257L45.466006 784.29257 45.466006 784.29257zM718.495516 324.771805 126.292869 324.771805c-9.686616 0-17.544585 7.858992-17.544585 17.550725 0 9.692756 7.857968 17.550725 17.544585 17.550725l592.19753 0c9.692756 0 17.550725-7.857968 17.550725-17.550725C736.046241 332.630796 728.188272 324.771805 718.495516 324.771805L718.495516 324.771805 718.495516 324.771805zM718.495516 495.563656 126.292869 495.563656c-9.686616 0-17.544585 7.857968-17.544585 17.550725 0 9.688663 7.857968 17.535375 17.544585 17.535375l592.19753 0c9.692756 0 17.550725-7.846712 17.550725-17.535375C736.046241 503.421624 728.188272 495.563656 718.495516 495.563656L718.495516 495.563656 718.495516 495.563656zM718.495516 666.340157 126.292869 666.340157c-9.686616 0-17.544585 7.855922-17.544585 17.547655 0 9.691733 7.857968 17.549701 17.544585 17.549701l592.19753 0c9.692756 0 17.550725-7.858992 17.550725-17.549701C736.046241 674.201196 728.188272 666.340157 718.495516 666.340157L718.495516 666.340157 718.495516 666.340157zM718.495516 666.340157" p-id="8399"></path></svg>