<?xml version="1.0" standalone="no"?><!DOCTYPE svg PUBLIC "-//W3C//DTD SVG 1.1//EN"
    "http://www.w3.org/Graphics/SVG/1.1/DTD/svg11.dtd">
<svg t="1664867796609" class="icon" viewBox="0 0 1025 1024" version="1.1"
    xmlns="http://www.w3.org/2000/svg" p-id="7823" xmlns:xlink="http://www.w3.org/1999/xlink"
    width="200.1953125" height="200">
    <path
        d="M329.728 919.552H142.336c15.36-191.488 177.152-340.992 369.664-340.992 46.08 0 89.6 8.192 130.048 24.064l1.536 0.512 45.568-45.568-3.072-1.536c-2.048-1.024-4.096-2.048-6.656-3.072-10.752-4.608-20.992-8.192-31.744-12.288 16.896-10.24 33.28-23.04 50.688-39.424 49.664-49.664 76.8-115.712 76.8-186.368s-27.136-136.192-76.8-186.368c-49.664-49.664-115.712-76.8-186.368-76.8s-136.704 27.136-186.368 76.8c-50.176 50.176-77.312 116.224-77.312 186.88S275.968 452.096 325.632 501.76c15.36 15.36 32.768 28.672 50.688 39.424-10.752 3.584-20.992 7.68-31.744 12.288-51.712 22.016-97.792 52.736-137.216 92.16-39.424 39.424-70.656 85.504-92.16 136.704-22.528 52.736-33.792 109.056-33.792 167.424 0 16.384 13.312 29.696 29.696 29.696h218.112c16.384 0 29.696-13.312 29.696-29.696 0.512-7.68-2.56-15.36-8.192-20.992a28.3648 28.3648 0 0 0-20.992-9.216zM512 111.616c112.128 0 203.776 91.648 203.776 203.776s-91.648 203.776-203.776 203.776-203.776-91.648-203.776-203.776S399.872 111.616 512 111.616z"
        p-id="7824"></path>
    <path
        d="M809.984 599.04c0-8.192-3.072-15.872-8.704-21.504-11.776-11.776-30.208-11.776-41.984 0l-258.048 258.048L389.12 723.456c-11.776-11.776-30.208-11.776-41.984 0-5.632 5.632-8.704 13.312-8.704 20.992s3.072 15.36 8.704 20.992l133.12 133.12c5.632 5.632 13.312 8.704 21.504 8.704s15.36-3.072 21.504-8.704l279.04-279.04c4.096-5.632 7.68-12.8 7.68-20.48zM908.8 781.824c-19.456-45.568-46.592-87.552-80.896-124.416l-2.048-2.048-42.496 42.496 1.536 2.048c56.32 61.44 89.6 137.728 96.256 220.672h-187.392c-16.384 0-29.696 13.312-29.696 29.696s13.312 29.696 29.696 29.696h218.112c16.384 0 29.696-13.312 29.696-29.696 1.024-57.344-10.24-114.176-32.768-168.448z"
        p-id="7825"></path>
</svg>