<?xml version="1.0" standalone="no"?><!DOCTYPE svg PUBLIC "-//W3C//DTD SVG 1.1//EN" "http://www.w3.org/Graphics/SVG/1.1/DTD/svg11.dtd"><svg t="1652152816169" class="icon" viewBox="0 0 1024 1024" version="1.1" xmlns="http://www.w3.org/2000/svg" p-id="12661" xmlns:xlink="http://www.w3.org/1999/xlink" width="300" height="300"><defs> </defs><path d="M512 98.909707 52.900837 282.550191l0 40.533159 62.534242 0c2.99931 6.084579 7.945973 10.936073 14.616906 14.187117 7.323802 3.569292 16.344247 5.160533 29.249161 5.160533l705.397708 0c12.904914 0 21.926382-1.592264 29.249161-5.160533 6.671956-3.251044 11.618619-8.102538 14.616906-14.187117l62.533218 0 0-40.533159L512 98.909707zM881.233436 292.384164l0 15.349593c0 0.89744-0.099261 1.397836-0.156566 1.616824-0.635473 0.457418-4.044106 2.382257-16.378016 2.382257L159.301146 311.732837c-12.331863 0-15.740496-1.924839-16.376992-2.382257-0.059352-0.217964-0.157589-0.719384-0.157589-1.616824l0-15.349593-31.791054 0 401.024489-160.41041 401.024489 160.41041L881.233436 292.384164z" p-id="12662"></path><path d="M923.865395 810.649867 100.134605 810.649867c-17.552771 0-31.884175 13.411451-31.884175 29.583782l0 22.590508 887.49914 0 0-22.590508C955.74957 824.061318 941.418166 810.649867 923.865395 810.649867z" p-id="12663"></path><path d="M171.233919 351.550705l0 355.00027-11.932774 0c-26.045189 0-47.233768 20.156062-47.233768 44.932352l0 31.322379 799.865243 0 0-31.322379c0-24.77629-21.188578-44.932352-47.233768-44.932352L852.766081 706.550974 852.766081 351.550705 737.8754 351.550705l0 355.00027-81.500199 0L656.375202 351.550705 547.139312 351.550705l0 355.00027-81.497129 0L465.642183 351.550705l-105.032148 0 0 355.00027-81.497129 0L279.112905 351.550705 171.233919 351.550705zM391.30922 737.249137 391.30922 382.249891l43.633776 0 0 355.00027 142.895501 0L577.838497 382.249891l47.838541 0 0 355.00027 142.898571 0L768.57561 382.249891l53.491285 0 0 355.00027 42.63196 0c8.963139 0 16.534582 6.517437 16.534582 14.233166l0 0.623193L142.766564 752.10652l0-0.623193c0-7.715729 7.571443-14.233166 16.534582-14.233166l42.63196 0L201.933105 382.249891l46.480614 0 0 355.00027L391.30922 737.25016z" p-id="12664"></path></svg>