<?xml version="1.0" standalone="no"?><!DOCTYPE svg PUBLIC "-//W3C//DTD SVG 1.1//EN" "http://www.w3.org/Graphics/SVG/1.1/DTD/svg11.dtd"><svg t="1656041232257" class="icon" viewBox="0 0 1024 1024" version="1.1" xmlns="http://www.w3.org/2000/svg" p-id="2257" xmlns:xlink="http://www.w3.org/1999/xlink" width="300" height="300"><defs></defs><path d="M1000.116033 622.239753l0-72.641437c0-58.313104-52.331879-105.754602-116.65486-105.754602l-18.420535 0 0-210.94434-43.861974 0c27.558659-9.639544 44.804439-35.8413 44.804439-71.14434 0-45.425585-37.742603-99.194186-69.6278-99.194186l-15.349593 0 0 15.349593c0 25.222451-10.558473 33.270754-23.925922 43.460838-13.522991 10.307763-30.352285 23.13593-30.352285 52.329832 0 17.315364 7.473205 33.44574 21.042245 45.419446 6.939039 6.122441 15.084557 10.763135 23.941272 13.778818l-38.223556 0 0 210.94434L579.475787 443.843714l0-210.94434-37.309744 0c27.558659-9.639544 44.804439-35.8413 44.804439-71.14434 0-45.425585-37.742603-99.194186-69.6278-99.194186l-15.349593 0 0 15.349593c0 25.222451-10.558473 33.270754-23.925922 43.460838-13.521968 10.307763-30.351262 23.13593-30.351262 52.329832 0 17.315364 7.473205 33.44574 21.042245 45.419446 6.938016 6.122441 15.083533 10.763135 23.940249 13.778818l-50.441832 0 0 210.94434L288.245913 443.843714l0-210.94434-36.248575 0c27.557636-9.639544 44.804439-35.8413 44.804439-71.14434 0-45.425585-37.741579-99.194186-69.6278-99.194186l-15.349593 0 0 15.349593c0 25.222451-10.558473 33.270754-23.925922 43.460838-13.521968 10.307763-30.351262 23.13593-30.351262 52.329832 0 17.315364 7.473205 33.44574 21.042245 45.419446 6.938016 6.122441 15.083533 10.763135 23.940249 13.778818l-43.571355 0 0 210.94434-18.420535 0c-64.324004 0-116.65486 47.440475-116.65486 105.754602l0 72.641437-0.001023 0 0 234.438427 976.234113 0L1000.116033 622.239753 1000.116033 622.239753zM757.426689 173.701111c0-13.428847 5.599532-18.261922 18.263969-27.91477 11.751648-8.959046 26.863834-20.48045 33.112142-43.932582 3.118014 3.112897 6.581905 7.199982 10.144034 12.458753 10.228969 15.102976 16.337083 32.837896 16.337083 47.441499 0 27.859511-14.553461 44.49233-38.928614 44.49233C774.889409 206.246341 757.426689 191.646831 757.426689 173.701111zM478.415091 173.701111c0-13.428847 5.598508-18.261922 18.262946-27.915793 11.752672-8.958022 26.864858-20.479427 33.112142-43.931558 3.118014 3.112897 6.581905 7.199982 10.144034 12.458753 10.228969 15.102976 16.337083 32.837896 16.337083 47.441499 0 27.859511-14.553461 44.49233-38.928614 44.49233C495.877811 206.246341 478.415091 191.646831 478.415091 173.701111zM188.246385 173.701111c0-13.428847 5.599532-18.261922 18.262946-27.915793 11.752672-8.958022 26.863834-20.479427 33.112142-43.931558 3.118014 3.113921 6.581905 7.201006 10.144034 12.459776 10.229992 15.101953 16.337083 32.837896 16.337083 47.441499 0 27.859511-14.552437 44.49233-38.928614 44.49233C205.709105 206.246341 188.246385 191.646831 188.246385 173.701111zM140.538827 474.5429l49.119721 0 0-210.94434 67.88818 0 0 210.94434 215.409025 0 0-210.94434 75.820849 0 0 210.94434 215.410048 0 0-210.94434 70.154803 0 0 210.94434 49.119721 0c47.39545 0 85.955674 33.668821 85.955674 75.055416l0 71.832002c-3.254114-0.350994-6.381337-0.811482-9.392928-1.37123-7.120165-3.238764-13.671371-8.235568-22.73684-15.165398l-0.557702-0.424672c-14.048971-10.709923-31.395034-23.916712-56.583716-32.172747-13.221116-10.191106-28.453029-17.97028-52.609195-17.97028-24.606421 0-39.957037 7.812943-53.226249 18.038842-25.211195 8.262174-42.499953 21.428032-56.511062 32.108279l-0.558725 0.427742c-9.055237 6.92062-15.600303 11.917424-22.712281 15.155165-7.485485 1.391696-15.682167 2.182712-24.759917 2.182712-9.206686 0-17.503653-0.814552-25.075095-2.24411-7.090489-3.227508-13.637602-8.196683-22.429849-15.118326l-0.529049-0.405229c-14.010085-10.679223-31.298843-23.844058-56.509015-32.106232-13.269211-10.225899-28.619828-18.038842-53.226249-18.038842-24.419156 0-39.308261 7.582699-52.719712 18.017352-24.741497 8.118911-42.015929 20.968567-56.031131 31.400151l-1.51347 1.1328c-8.635681 6.797823-15.052834 11.843746-22.245653 15.137769-7.479345 1.416256-15.661701 2.224668-24.721031 2.224668-9.191336 0-17.469883-0.805342-25.01779-2.219551-7.111978-3.226484-13.672394-8.203846-22.488177-15.142885l-0.189312-0.147356c-14.182001-10.809183-31.703049-24.146956-57.217143-32.453133-13.859659-10.622942-28.469402-17.950837-52.856835-17.950837-24.606421 0-39.957037 7.813966-53.226249 18.038842-25.209148 8.261151-42.496883 21.425985-56.506968 32.105209l-0.531096 0.406253c-8.798387 6.925736-15.349593 11.893888-22.445198 15.121396-3.108804 0.586354-6.340405 1.068332-9.709129 1.431605l0-71.832002C54.583153 508.21172 93.142353 474.5429 140.538827 474.5429zM54.582129 825.977971 54.582129 654.343939c7.138584-0.99056 13.340843-2.675946 18.940374-4.88424 36.433794-7.783267 58.986439-27.126824 76.478835-42.148959l0.186242-0.162706c2.977821-2.641153 5.691629-5.02341 8.258081-7.166213 10.911514-3.041266 23.530926-4.900613 38.555108-4.900613 14.896268 0 27.449165 1.840928 38.327934 4.859681 2.608407 2.15099 5.383614 4.538363 8.454556 7.18361l0.557702 0.479931c17.407462 14.950504 39.84345 34.219359 76.324316 41.926902 9.233292 3.614317 20.088524 5.820566 34.103726 5.820566 13.747095 0 24.447808-2.192945 33.587979-5.78782 35.842323-7.587815 58.373479-26.479071 75.858712-41.143049l1.508353-1.27197c2.981914-2.645247 5.678326-5.034666 8.216125-7.186679 10.830673-3.025916 23.294542-4.880147 38.057781-4.880147 15.023158 0 27.64257 1.859347 38.554084 4.89959 2.566452 2.142803 5.28026 4.52506 8.258081 7.167237l0.187265 0.162706c17.508769 15.036461 40.071647 34.411741 76.56377 42.181705 9.254781 3.637854 20.138666 5.859451 34.205033 5.859451 13.81361 0 24.464181-2.143826 33.644261-5.746888 36.81958-7.690146 59.528791-27.180036 77.126588-42.293245l0.186242-0.162706c2.977821-2.641153 5.691629-5.02341 8.258081-7.166213 10.911514-3.040243 23.530926-4.900613 38.554084-4.900613 14.736633 0 27.16264 1.829671 37.937031 4.828982 2.587941 2.161223 5.329379 4.567016 8.339946 7.237845l0.186242 0.162706c17.590634 15.107069 40.294728 34.583656 77.089749 42.279942 5.466502 2.148943 11.462053 3.774977 18.329461 4.743024l0 171.645288L54.582129 825.981041z" p-id="2258"></path></svg>