<?xml version="1.0" standalone="no"?><!DOCTYPE svg PUBLIC "-//W3C//DTD SVG 1.1//EN"
    "http://www.w3.org/Graphics/SVG/1.1/DTD/svg11.dtd">
<svg t="1656905016785" class="icon" viewBox="0 0 1024 1024" version="1.1"
    xmlns="http://www.w3.org/2000/svg" p-id="35403" xmlns:xlink="http://www.w3.org/1999/xlink"
    width="128" height="128">
    <defs>
    </defs>
    <path
        d="M767.665675 0H300.649709C218.836693 0 154.068056 64.768638 154.068056 143.172778v862.445542c0 6.817751 3.408876 13.635503 10.226627 17.044378H171.112434c3.408876 0 10.226627-3.408876 13.635503-6.817751l242.030171-259.07455c95.448518 102.26627 231.803545 245.439048 238.621297 255.665674l10.226627 10.226627c6.817751 3.408876 13.635503 0 20.453254-6.817751 3.408876-3.408876 3.408876-6.817751 3.408875-10.226627V102.26627v-13.635503-3.408875c0-3.408876 0-6.817751 3.408876-6.817752 0-3.408876 0-3.408876 3.408876-6.817751 0-3.408876 3.408876-3.408876 3.408875-6.817751s3.408876-3.408876 3.408876-6.817752l3.408876-3.408875c0-3.408876 3.408876-3.408876 6.817751-6.817752l3.408876-3.408875c3.408876-3.408876 3.408876-3.408876 6.817751-3.408876h3.408876c3.408876 0 6.817751-3.408876 6.817751-3.408876h3.408876c6.817751-3.408876 13.635503-3.408876 20.453254-3.408875 10.226627 0 17.044378 6.817751 17.044378 17.044378s-6.817751 17.044378-17.044378 17.044378c-20.453254 0-34.088757 13.635503-34.088757 34.088757v68.177513H852.887566c10.226627 0 17.044378-6.817751 17.044378-17.044378V102.26627c0-57.950886-44.315384-102.26627-102.266269-102.26627z"
        fill="#bfbfbf" p-id="35404"></path>
</svg>