<?xml version="1.0" standalone="no"?><!DOCTYPE svg PUBLIC "-//W3C//DTD SVG 1.1//EN" "http://www.w3.org/Graphics/SVG/1.1/DTD/svg11.dtd"><svg t="1670681005539" class="icon" viewBox="0 0 1137 1024" version="1.1" xmlns="http://www.w3.org/2000/svg" p-id="4898" xmlns:xlink="http://www.w3.org/1999/xlink" width="222.0703125" height="200"><path d="M754.18750006 90.125a78.12500015 78.12500015 0 0 1 78.12500016 78.12500015v93.75000018H933.875a93.75000019 93.75000019 0 0 1 93.75000019 93.74999937v468.75000008a93.75000019 93.75000019 0 0 1-93.75000019 93.75000019H183.87500019a93.75000019 93.75000019 0 0 1-93.75000019-93.75000019v-468.75000008a93.75000019 93.75000019 0 0 1 93.75000019-93.74999937h101.56249978v-93.75000018A78.12500015 78.12500015 0 0 1 363.56250013 90.125h390.62499992zM281.53124976 582.31249973H152.62500012v242.18750005a31.25000005 31.25000005 0 0 0 31.25000006 31.25000007h749.99999982a31.25000005 31.25000005 0 0 0 31.25000005-31.25000007v-242.18750005h-117.18749981v42.96874987a31.25000005 31.25000005 0 0 1-27.59375033 31.03125046l-3.65624973 0.21874961a31.25000005 31.25000005 0 0 1-31.25000005-31.25000007V582.31249973H344.03124987v42.96874987a31.25000005 31.25000005 0 0 1-27.5937495 31.03125046l-3.65625056 0.21874961a31.25000005 31.25000005 0 0 1-31.03124963-27.59374952l-0.21875042-3.65625055V582.31249973zM933.875 324.49999963H183.87500019a31.25000005 31.25000005 0 0 0-31.25000006 31.25000006v164.06249991h128.90624963v-50.78124948a31.25000005 31.25000005 0 0 1 27.59375033-31.03125045l3.65624973-0.21874962a31.25000005 31.25000005 0 0 1 31.03125045 27.59375035l0.21874961 3.65624972v50.78124948H785.43750012v-50.78124948a31.25000005 31.25000005 0 0 1 27.59374951-31.03125045l3.65625055-0.21874962a31.25000005 31.25000005 0 0 1 31.25000006 31.25000007v50.78124948H965.12500006V355.7499997a31.25000005 31.25000005 0 0 0-31.25000006-31.25000007zM754.18750006 152.62500012H363.56250013a15.62500003 15.62500003 0 0 0-15.62500004 15.62500003V246.3750003h421.875V168.25000015a15.62500003 15.62500003 0 0 0-15.62500003-15.62500003z" fill="#333333" p-id="4899"></path></svg>