<?xml version="1.0" standalone="no"?><!DOCTYPE svg PUBLIC "-//W3C//DTD SVG 1.1//EN" "http://www.w3.org/Graphics/SVG/1.1/DTD/svg11.dtd"><svg t="1652152683617" class="icon" viewBox="0 0 1024 1024" version="1.1" xmlns="http://www.w3.org/2000/svg" p-id="9027" xmlns:xlink="http://www.w3.org/1999/xlink" width="300" height="300"><defs> </defs><path d="M1008 777.76l-78.4-470.72A48 48 0 0 0 944 272v-64a48 48 0 0 0-48-48h-22.72a80 80 0 0 0-146.56 0h-45.44a80 80 0 0 0-146.56 0h-45.44a80 80 0 0 0-146.56 0H320a48 48 0 0 0-48 48v64a48 48 0 0 0 13.44 33.28l-8.64 17.28L238.08 400H64a48 48 0 0 0-48 48v23.04A104.96 104.96 0 0 0 120.96 576h130.24l-38.08 281.6a48 48 0 0 0 48 54.4h544a48 48 0 0 0 48-41.6l3.04-22.4h92.96A60.32 60.32 0 0 0 1008 787.68a67.36 67.36 0 0 0 0-9.92zM728.96 544A73.28 73.28 0 0 1 656 471.04V448a48 48 0 0 0-48-48H273.92l40-80h572.16l-91.52 183.2v1.28a72.64 72.64 0 0 1-65.6 39.52zM800 144a48 48 0 0 1 35.68 16h-71.36A48 48 0 0 1 800 144zM608 144a48 48 0 0 1 35.68 16h-71.36A48 48 0 0 1 608 144zM416 144a48 48 0 0 1 35.68 16h-71.36A48 48 0 0 1 416 144z m-112 64a16 16 0 0 1 16-16h16a80 80 0 0 0 80 80 16 16 0 0 0 0-32 48 48 0 0 1-48-48h160a80 80 0 0 0 80 80 16 16 0 0 0 0-32 48 48 0 0 1-48-48h160a80 80 0 0 0 80 80 16 16 0 0 0 0-32 48 48 0 0 1-48-48h144a16 16 0 0 1 16 16v64a16 16 0 0 1-16 16H320a16 16 0 0 1-16-16z m520.8 621.92l-4.96 36.16a16 16 0 0 1-16 13.92h-544a16 16 0 0 1-12-5.44 16 16 0 0 1-3.84-12.64L283.36 576h445.6a105.28 105.28 0 0 0 54.56-16 103.84 103.84 0 0 0 38.56-41.12v-1.6l60.32-120.64z" p-id="9028"></path><path d="M400 608h-48a16 16 0 0 0 0 32h48a16 16 0 0 0 0-32zM528 608h-48a16 16 0 0 0 0 32h48a16 16 0 0 0 0-32zM656 608h-48a16 16 0 0 0 0 32h48a16 16 0 0 0 0-32zM784 608h-48a16 16 0 0 0 0 32h48a16 16 0 0 0 0-32zM384 688h-48a16 16 0 0 0 0 32h48a16 16 0 0 0 0-32zM512 688h-48a16 16 0 0 0 0 32h48a16 16 0 0 0 0-32zM640 688h-48a16 16 0 0 0 0 32h48a16 16 0 0 0 0-32zM768 688h-48a16 16 0 0 0 0 32h48a16 16 0 0 0 0-32zM368 768h-48a16 16 0 0 0 0 32h48a16 16 0 0 0 0-32zM496 768h-48a16 16 0 0 0 0 32h48a16 16 0 0 0 0-32zM624 768h-48a16 16 0 0 0 0 32h48a16 16 0 0 0 0-32zM752 768h-48a16 16 0 0 0 0 32h48a16 16 0 0 0 0-32z" p-id="9029"></path></svg>