<?xml version="1.0" standalone="no"?><!DOCTYPE svg PUBLIC "-//W3C//DTD SVG 1.1//EN" "http://www.w3.org/Graphics/SVG/1.1/DTD/svg11.dtd"><svg t="1652152766492" class="icon" viewBox="0 0 1024 1024" version="1.1" xmlns="http://www.w3.org/2000/svg" p-id="10869" xmlns:xlink="http://www.w3.org/1999/xlink" width="300" height="300"><defs> </defs><path d="M512 1021.7c-63.8 0-125.7-12.5-183.9-37.1-56.3-23.8-106.8-57.9-150.2-101.3-43.4-43.4-77.5-93.9-101.3-150.2C52 674.8 39.5 612.9 39.5 549.2c0-90.5 25.7-178.5 74.3-254.4 47.3-73.9 114-133.1 192.8-171.2 9.9-4.8 21.9-0.6 26.7 9.3 4.8 9.9 0.6 21.9-9.3 26.7C175.4 231.3 79.5 384.3 79.5 549.2c0 238.5 194 432.5 432.5 432.5s432.5-194 432.5-432.5c0-166.9-93.2-316-243.3-389.1-9.9-4.8-14.1-16.8-9.2-26.7 4.8-9.9 16.8-14.1 26.7-9.2 78.5 38.2 144.9 97.4 191.9 171.2 48.4 75.8 73.9 163.6 73.9 253.9 0 63.8-12.5 125.7-37.1 183.9-23.8 56.3-57.9 106.8-101.3 150.2-43.4 43.4-93.9 77.5-150.2 101.3-58.2 24.5-120.1 37-183.9 37z" fill="#999999" p-id="10870"></path><path d="M449.1 709.5c-17.3 0-34.5-6.6-47.7-19.7L283 571.3c-7.8-7.8-7.8-20.5 0-28.3 7.8-7.8 20.5-7.8 28.3 0l118.5 118.5c10.7 10.7 28.1 10.7 38.7 0l244.2-244.2c7.8-7.8 20.5-7.8 28.3 0 7.8 7.8 7.8 20.5 0 28.3L496.8 689.8c-13.2 13.1-30.4 19.7-47.7 19.7zM382.2 11.7c-10.2 0-18.5 8.3-18.5 18.5v185.5c0 10.2 8.3 18.5 18.5 18.5s18.5-8.3 18.5-18.5V30.2c0-10.2-8.3-18.5-18.5-18.5zM641.8 11.7c-10.2 0-18.5 8.3-18.5 18.5v185.5c0 10.2 8.3 18.5 18.5 18.5s18.5-8.3 18.5-18.5V30.2c0.1-10.2-8.3-18.5-18.5-18.5zM567.6 104.4H456.4c-10.2 0-18.5 8.3-18.5 18.5s8.3 18.5 18.5 18.5h111.3c10.2 0 18.5-8.3 18.5-18.5s-8.4-18.5-18.6-18.5z" fill="#999999" p-id="10871"></path></svg>