<?xml version="1.0" standalone="no"?><!DOCTYPE svg PUBLIC "-//W3C//DTD SVG 1.1//EN" "http://www.w3.org/Graphics/SVG/1.1/DTD/svg11.dtd"><svg t="1652152531305" class="icon" viewBox="0 0 1024 1024" version="1.1" xmlns="http://www.w3.org/2000/svg" p-id="4488" width="300" height="300" xmlns:xlink="http://www.w3.org/1999/xlink"><defs> </defs><path d="M667.381371 65.502853 355.949386 65.502853c-54.926984 0-99.612719 45.848211-99.612719 102.202707l0 687.414125c0 56.353472 44.685735 102.20066 99.612719 102.20066l311.431985 0c54.92596 0 99.610672-45.847188 99.610672-102.20066L766.992043 167.70556C766.99102 111.351064 722.306308 65.502853 667.381371 65.502853zM728.569966 855.119685c0 35.166941-27.449165 63.778582-61.188594 63.778582L355.949386 918.898267c-33.740452 0-61.189617-28.611641-61.189617-63.778582l0-49.753147 433.810197 0L728.569966 855.119685zM728.569966 766.94446l-433.810197 0L294.759769 209.833029l433.810197 0L728.569966 766.94446zM728.569966 171.409928l-433.810197 0 0-3.704368c0-35.167964 27.449165-63.779605 61.189617-63.779605l311.431985 0c33.739429 0 61.188594 28.611641 61.188594 63.779605L728.569966 171.409928z" p-id="4489"></path><path d="M511.664867 862.131379m-37.604456 0a36.748 36.748 0 1 0 75.208912 0 36.748 36.748 0 1 0-75.208912 0Z" p-id="4490"></path></svg>