<?xml version="1.0" standalone="no"?><!DOCTYPE svg PUBLIC "-//W3C//DTD SVG 1.1//EN" "http://www.w3.org/Graphics/SVG/1.1/DTD/svg11.dtd"><svg t="1669004153639" class="icon" viewBox="0 0 1024 1024" version="1.1" xmlns="http://www.w3.org/2000/svg" p-id="5997" xmlns:xlink="http://www.w3.org/1999/xlink" width="200" height="200"><path d="M251.2 838.4c52.8 0 96-44.8 96-99.2 0-51.2-38.4-94.4-88-97.6v-134.4h244.8v134.4c-49.6 4.8-88 46.4-88 99.2 0 54.4 43.2 99.2 96 99.2s96-44.8 96-99.2c0-51.2-38.4-94.4-88-97.6v-134.4h244.8v134.4c-49.6 3.2-89.6 46.4-89.6 97.6 0 54.4 43.2 99.2 96 99.2s96-44.8 96-99.2c0-51.2-38.4-92.8-86.4-97.6v-150.4H520V384c49.6-4.8 88-46.4 88-97.6 0-54.4-43.2-99.2-96-99.2s-96 44.8-96 99.2c0 51.2 38.4 94.4 88 97.6v108.8H243.2v150.4c-49.6 4.8-88 46.4-88 97.6 0 54.4 43.2 97.6 96 97.6z m260.8-32c-35.2 0-64-30.4-64-67.2s28.8-67.2 64-67.2 64 30.4 64 67.2-28.8 67.2-64 67.2z m260.8 0c-35.2 0-64-30.4-64-67.2s28.8-67.2 64-67.2 64 30.4 64 67.2-28.8 67.2-64 67.2zM512 217.6c35.2 0 64 30.4 64 67.2S547.2 352 512 352s-64-30.4-64-67.2 28.8-67.2 64-67.2zM315.2 740.8c0 36.8-28.8 67.2-64 67.2s-64-30.4-64-67.2 28.8-67.2 64-67.2 64 30.4 64 67.2z" fill="#707070" p-id="5998"></path></svg>