<?xml version="1.0" standalone="no"?><!DOCTYPE svg PUBLIC "-//W3C//DTD SVG 1.1//EN" "http://www.w3.org/Graphics/SVG/1.1/DTD/svg11.dtd"><svg t="1665650099049" class="icon" viewBox="0 0 1024 1024" version="1.1" xmlns="http://www.w3.org/2000/svg" p-id="5666" xmlns:xlink="http://www.w3.org/1999/xlink" width="200" height="200"><path d="M510.500405 127.625101C405.082071 127.625101 319.062753 213.64442 319.062753 319.062753s86.019318 191.437652 191.437652 191.437652c76.000748 0 147.087929-44.668785 201.64766-86.274568 54.878794-41.861033 93.230136-83.722066 93.230137-83.722067L825.09628 319.062753l-19.973329-21.696267s-38.606593-41.861033-93.166324-83.466816C657.014021 172.230074 585.990652 127.625101 510.500405 127.625101z m0 382.875304c-175.995015 0-319.062753 143.067739-319.062753 319.062753h63.812551c0-140.834299 114.415903-255.250203 255.250202-255.250202 59.345672 0 113.139652 21.185767 156.532187 54.878793l44.668785-45.434536C656.503521 538.89699 586.947841 510.500405 510.500405 510.500405z m0-319.062753c48.114663 0 112.692964 35.096903 162.530567 73.256808 35.862653 27.184147 47.859413 41.159095 61.06861 54.368293-12.953948 13.400636-24.886895 27.184147-60.621923 54.368293C623.767682 411.527139 559.444631 446.687854 510.500405 446.687854c-70.831931 0-127.625101-56.79317-127.625101-127.625101 0-70.831931 56.79317-127.625101 127.625101-127.625101z m395.829252 319.318003a80.148564 80.148564 0 0 0-56.79317 24.184957l-297.685549 302.599115-44.349723 186.460273 186.460273-44.158285 6.25363-6.445068 296.600735-291.368106c31.651025-30.949087 32.161526-83.020128 0.510501-114.415903l-33.437777-33.693027a79.765688 79.765688 0 0 0-57.55892-23.163956z m0.5105 63.30205c4.211628 0 8.487069 1.722939 11.932947 5.23263l33.437777 33.437776c7.019381 6.700318 7.019381 16.910326 0 23.929707l-290.155668 284.859226-68.78993 16.718888 16.463638-68.78993 285.369727-290.155667a15.953138 15.953138 0 0 1 11.741509-5.23263z" fill="" p-id="5667"></path></svg>