<?xml version="1.0" standalone="no"?><!DOCTYPE svg PUBLIC "-//W3C//DTD SVG 1.1//EN" "http://www.w3.org/Graphics/SVG/1.1/DTD/svg11.dtd"><svg t="1652152623214" class="icon" viewBox="0 0 1024 1024" version="1.1" xmlns="http://www.w3.org/2000/svg" p-id="6689" xmlns:xlink="http://www.w3.org/1999/xlink" width="300" height="300"><defs> </defs><path d="M288 80a208 208 0 1 0 208 208A208 208 0 0 0 288 80z m32 288v16a16 16 0 0 1-32 0v-16h-16v16a16 16 0 0 1-32 0v-16h-16a16 16 0 0 1 0-32v-96a16 16 0 0 1 0-32h16v-16a16 16 0 0 1 32 0v16h16v-16a16 16 0 0 1 32 0v18.88A48 48 0 0 1 352 256a48.96 48.96 0 0 1-6.08 23.52A48 48 0 0 1 320 368z" p-id="6690"></path><path d="M320 304h-64v32h64a16 16 0 0 0 0-32zM320 256a16 16 0 0 0-16-16h-48v32h48a16 16 0 0 0 16-16zM736 528a208 208 0 1 0 208 208 208 208 0 0 0-208-208z m-16 192h32a48 48 0 0 1 0 96v16a16 16 0 0 1-32 0v-16h-32a16 16 0 0 1 0-32h64a16 16 0 0 0 0-32h-32a48 48 0 0 1 0-96v-16a16 16 0 0 1 32 0v16h32a16 16 0 0 1 0 32h-64a16 16 0 0 0 0 32zM464 736h-64a112 112 0 0 1-110.72-96H336a16 16 0 0 0 14.72-9.92 16 16 0 0 0-3.36-17.44l-64-64-1.6-1.28a6.56 6.56 0 0 0-1.76-1.12 12.32 12.32 0 0 0-4-1.6h-1.6a9.12 9.12 0 0 0-4.8 0h-1.6a12.32 12.32 0 0 0-4 1.6 6.56 6.56 0 0 0-1.76 1.12l-1.6 1.28-64 64a16 16 0 0 0-3.36 17.44A16 16 0 0 0 208 640h48.96A144 144 0 0 0 400 768h64a16 16 0 0 0 0-32zM560 288h64a112 112 0 0 1 110.72 96H688a16 16 0 0 0-14.72 9.92 16 16 0 0 0 3.36 17.44l64 64a16 16 0 0 0 22.72 0l64-64a16 16 0 0 0 3.36-17.44A16 16 0 0 0 816 384h-48.96A144 144 0 0 0 624 256h-64a16 16 0 0 0 0 32z" p-id="6691"></path></svg>