<?xml version="1.0" standalone="no"?><!DOCTYPE svg PUBLIC "-//W3C//DTD SVG 1.1//EN" "http://www.w3.org/Graphics/SVG/1.1/DTD/svg11.dtd"><svg t="1655711854733" class="icon" viewBox="0 0 1024 1024" version="1.1" xmlns="http://www.w3.org/2000/svg" p-id="1648" xmlns:xlink="http://www.w3.org/1999/xlink" width="200" height="200"><defs><style type="text/css">@font-face { font-family: Roboto; src: url("chrome-extension://mcgbeeipkmelnpldkobichboakdfaeon/css/Roboto-Regular.ttf"); }
@font-face { font-family: feedback-iconfont; src: url("//at.alicdn.com/t/font_1031158_u69w8yhxdu.woff2?t=1630033759944") format("woff2"), url("//at.alicdn.com/t/font_1031158_u69w8yhxdu.woff?t=1630033759944") format("woff"), url("//at.alicdn.com/t/font_1031158_u69w8yhxdu.ttf?t=1630033759944") format("truetype"); }
</style></defs><path d="M362.666667 362.666667m-298.666667 0a298.666667 298.666667 0 1 0 597.333333 0 298.666667 298.666667 0 1 0-597.333333 0Z" fill="#00ACC1" p-id="1649"></path><path d="M362.666667 362.666667m-234.666667 0a234.666667 234.666667 0 1 0 469.333333 0 234.666667 234.666667 0 1 0-469.333333 0Z" fill="#EEEEEE" p-id="1650"></path><path d="M341.333333 170.666667h42.666667v192h-42.666667z" fill="" p-id="1651"></path><path d="M483.306667 447.018667l-36.202667 36.202666-102.570667-102.549333 36.202667-36.202667z" fill="" p-id="1652"></path><path d="M362.666667 362.666667m-42.666667 0a42.666667 42.666667 0 1 0 85.333333 0 42.666667 42.666667 0 1 0-85.333333 0Z" fill="" p-id="1653"></path><path d="M362.666667 362.666667m-21.333334 0a21.333333 21.333333 0 1 0 42.666667 0 21.333333 21.333333 0 1 0-42.666667 0Z" fill="#00ACC1" p-id="1654"></path><path d="M253.866667 896l307.2-514.133333c17.066667-27.733333 57.6-27.733333 72.533333 0L940.8 896c17.066667 27.733333-4.266667 64-36.266667 64H290.133333c-32 0-53.333333-36.266667-36.266666-64z" fill="#FFC107" p-id="1655"></path><path d="M563.2 851.2c0-4.266667 0-8.533333 2.133333-12.8s4.266667-6.4 6.4-10.666667 6.4-4.266667 10.666667-6.4 8.533333-2.133333 12.8-2.133333 10.666667 0 14.933333 2.133333 8.533333 4.266667 10.666667 6.4 4.266667 6.4 6.4 10.666667 2.133333 8.533333 2.133333 12.8 0 8.533333-2.133333 12.8-4.266667 6.4-6.4 10.666667-6.4 4.266667-10.666667 6.4-8.533333 2.133333-14.933333 2.133333-10.666667 0-12.8-2.133333-8.533333-4.266667-10.666667-6.4-4.266667-6.4-6.4-10.666667-2.133333-8.533333-2.133333-12.8z m59.733333-66.133333h-49.066666l-8.533334-209.066667h64l-6.4 209.066667z" fill="#263238" p-id="1656"></path></svg>