<?xml version="1.0" standalone="no"?><!DOCTYPE svg PUBLIC "-//W3C//DTD SVG 1.1//EN" "http://www.w3.org/Graphics/SVG/1.1/DTD/svg11.dtd"><svg t="1651029015439" class="icon" viewBox="0 0 1025 1024" version="1.1" xmlns="http://www.w3.org/2000/svg" p-id="2063" xmlns:xlink="http://www.w3.org/1999/xlink" width="200.1953125" height="200"><defs> </defs><path d="M1017.4592 520.4992c-2.4064-2.7136-60.5184-66.816-151.3472-131.6864-53.6064-38.2976-107.52-68.8128-160.256-90.7776-66.816-27.8528-132.0448-41.984-193.8432-41.984s-127.0272 14.1312-193.8432 41.984c-52.736 21.9648-106.6496 52.5312-160.256 90.7776-90.8288 64.8704-148.9408 129.024-151.3472 131.6864-8.7552 9.728-8.7552 24.5248 0 34.2528 2.4064 2.7136 60.5184 66.816 151.3472 131.6864 53.6064 38.2976 107.52 68.8128 160.256 90.7776 66.816 27.8528 132.0448 41.984 193.8432 41.984s127.0272-14.1312 193.8432-41.984c52.736-21.9648 106.6496-52.5312 160.256-90.7776 90.8288-64.8704 148.9408-129.024 151.3472-131.6864 8.7552-9.728 8.7552-24.5248 0-34.2528zM643.8016 329.6256c46.4384 39.0656 73.0112 95.8976 73.0112 156.7744 0 112.9472-91.8528 204.8-204.8 204.8s-204.8-91.8528-204.8-204.8c0-60.8256 26.5728-117.7088 73.0112-156.7744 42.0864-13.7216 86.5792-22.4256 131.7888-22.4256s89.7024 8.704 131.7888 22.4256zM835.4432 645.4272c-78.4896 55.9104-198.2976 122.5728-323.4304 122.5728s-244.9408-66.6624-323.4304-122.5728c-59.2384-42.1888-104.5504-84.8896-127.4368-107.8272 22.8864-22.9376 68.1984-65.5872 127.4368-107.8272 27.136-19.3536 59.1872-39.936 94.72-58.624-17.7664 35.2256-27.2896 74.496-27.2896 115.2512 0 141.1584 114.8416 256 256 256s256-114.8416 256-256c0-40.7552-9.5232-80.0256-27.2896-115.2512 35.5328 18.688 67.584 39.3216 94.72 58.624 59.2384 42.1888 104.5504 84.8896 127.4368 107.8272-22.8864 22.9376-68.1984 65.5872-127.4368 107.8272z" p-id="2064"></path></svg>