<?xml version="1.0" standalone="no"?><!DOCTYPE svg PUBLIC "-//W3C//DTD SVG 1.1//EN" "http://www.w3.org/Graphics/SVG/1.1/DTD/svg11.dtd"><svg t="1652324502149" class="icon" viewBox="0 0 1024 1024" version="1.1" xmlns="http://www.w3.org/2000/svg" p-id="18911" xmlns:xlink="http://www.w3.org/1999/xlink" width="300" height="300"><defs> </defs><path d="M497.0496 72.5504c-230.912 0-418.1504 187.1872-418.1504 418.1504s187.1872 418.1504 418.1504 418.1504 418.1504-187.1872 418.1504-418.1504S728.0128 72.5504 497.0496 72.5504zM652.3392 668.16c-15.872 15.872-41.4208 16.0256-57.4976-0.0512L486.4 559.6672 371.3024 674.816c-15.872 15.872-41.5232 16.0256-57.4976 0.0512-15.872-15.872-16.0256-41.4208 0.0512-57.4976l115.0976-115.0976L318.5152 391.7824c-15.872-15.872-16.0256-41.5232-0.0512-57.4976C334.336 318.464 359.8848 318.2592 375.9616 334.336L486.4 444.7744l103.7824-103.7824c15.872-15.872 41.5232-16.0256 57.4976-0.0512 15.872 15.872 16.0256 41.4208-0.0512 57.4976l-103.7824 103.7824 108.4928 108.4928C668.2112 626.5856 668.3136 652.1856 652.3392 668.16z" p-id="18912"></path></svg>