<?xml version="1.0" standalone="no"?><!DOCTYPE svg PUBLIC "-//W3C//DTD SVG 1.1//EN" "http://www.w3.org/Graphics/SVG/1.1/DTD/svg11.dtd"><svg t="1670609262160" class="icon" viewBox="0 0 1024 1024" version="1.1" xmlns="http://www.w3.org/2000/svg" p-id="3700" xmlns:xlink="http://www.w3.org/1999/xlink" width="200" height="200"><path d="M66.782996 587.687336a360.625773 360.625773 0 0 1 360.625773 360.625773 66.782551 66.782551 0 0 1-133.565101 0 227.060672 227.060672 0 0 0-227.060672-227.060672 66.782551 66.782551 0 0 1 0-133.565101z m0-289.391053c358.97847 0 650.016826 291.038356 650.016826 650.016826a66.782551 66.782551 0 0 1-133.565101 0c0-285.250535-231.20119-516.451725-516.451725-516.451725a66.782551 66.782551 0 0 1 0-133.565101z m0-298.295393a945.640917 945.640917 0 0 1 687.103402 294.733657A945.151178 945.151178 0 0 1 1015.095215 948.313109a66.782551 66.782551 0 0 1-133.565102 0 811.630599 811.630599 0 0 0-224.38937-561.507685A812.075816 812.075816 0 0 0 66.782996 133.565992a66.782551 66.782551 0 1 1 0-133.565102z m0.53426 881.529669a66.782551 66.782551 0 0 1 6.411125 133.253449L66.782996 1015.09566a66.782551 66.782551 0 0 1-6.411125-133.253449l6.945385-0.311652z" p-id="3701"></path></svg>