<?xml version="1.0" standalone="no"?><!DOCTYPE svg PUBLIC "-//W3C//DTD SVG 1.1//EN" "http://www.w3.org/Graphics/SVG/1.1/DTD/svg11.dtd"><svg t="1652252644000" class="icon" viewBox="0 0 1117 1024" version="1.1" xmlns="http://www.w3.org/2000/svg" p-id="15617" xmlns:xlink="http://www.w3.org/1999/xlink" width="327.24609375" height="300"><defs> </defs><path d="M740.072727 512a256.093091 256.093091 0 0 1 248.226909 193.163636H1047.272727a69.818182 69.818182 0 0 1 6.702546 139.310546l-6.702546 0.325818h-62.929454a256.093091 256.093091 0 0 1-488.541091 0H69.818182a69.818182 69.818182 0 0 1-6.702546-139.310545l6.702546-0.325819h422.027636A256.093091 256.093091 0 0 1 740.072727 512z m0 139.636364a116.363636 116.363636 0 1 0 0 232.727272 116.363636 116.363636 0 0 0 0-232.727272zM377.018182 0a256.093091 256.093091 0 0 1 248.226909 193.163636H1047.272727a69.818182 69.818182 0 0 1 6.702546 139.310546l-6.702546 0.325818h-425.984a256.093091 256.093091 0 0 1-488.541091 0H69.818182a69.818182 69.818182 0 0 1-6.702546-139.310545L69.818182 193.163636h58.973091A256.093091 256.093091 0 0 1 377.018182 0z m0 139.636364a116.363636 116.363636 0 1 0 0 232.727272 116.363636 116.363636 0 0 0 0-232.727272z" p-id="15618"></path></svg>