<?xml version="1.0" standalone="no"?><!DOCTYPE svg PUBLIC "-//W3C//DTD SVG 1.1//EN" "http://www.w3.org/Graphics/SVG/1.1/DTD/svg11.dtd"><svg t="1652152591119" class="icon" viewBox="0 0 1024 1024" version="1.1" xmlns="http://www.w3.org/2000/svg" p-id="5710" xmlns:xlink="http://www.w3.org/1999/xlink" width="300" height="300"><defs> </defs><path d="M504.746667 73.813333C359.68 76.373333 265.813333 141.653333 265.813333 141.653333 253.866667 149.333333 250.88 166.826667 258.986667 178.773333 267.52 192 284.16 194.133333 296.96 185.173333 296.96 185.173333 480.853333 49.066667 744.96 186.88 757.333333 194.133333 773.973333 189.866667 781.226667 177.066667 789.333333 164.266667 783.786667 148.053333 769.28 139.946667 698.026667 102.4 630.613333 83.626667 570.026667 76.8 547.413333 74.24 525.653333 73.386667 504.746667 73.813333M521.386667 185.173333C267.093333 181.76 145.493333 386.133333 145.493333 386.133333 137.386667 398.506667 140.8 414.72 152.746667 422.826667 165.12 430.933333 181.76 426.666667 192 413.013333 192 413.013333 295.253333 234.666667 520.533333 238.506667 746.666667 241.493333 845.653333 411.733333 845.653333 411.733333 853.333333 424.106667 869.546667 428.373333 882.346667 421.12 896 413.44 898.986667 397.226667 891.733333 384 891.733333 384 774.4 188.586667 521.386667 185.173333M490.666667 290.986667C418.986667 296.106667 350.293333 322.133333 298.666667 365.226667 197.12 449.28 132.266667 603.306667 203.52 810.666667 208.213333 824.746667 223.573333 832 237.653333 827.306667 251.306667 822.613333 258.986667 807.253333 253.866667 793.6L253.866667 793.6C188.16 602.88 246.613333 477.866667 332.8 405.333333 416.853333 336.64 565.333333 320 675.84 388.266667 730.026667 422.4 772.266667 481.28 793.6 539.306667 815.36 597.333333 814.08 653.653333 796.586667 680.106667 778.666667 707.84 742.4 718.08 710.4 709.973333 678.4 701.866667 652.373333 678.826667 651.093333 630.186667 649.813333 557.226667 592.64 512 533.333333 505.173333 476.16 498.346667 410.026667 529.066667 392.96 597.333333 360.533333 721.92 442.026667 898.986667 630.613333 957.866667 644.693333 962.133333 659.626667 954.453333 664.32 940.373333 668.586667 926.293333 661.333333 910.933333 646.4 906.666667 482.986667 855.893333 421.12 701.013333 444.586667 609.706667 454.826667 568.746667 490.666667 554.666667 528.213333 558.08 565.333333 562.346667 597.333333 584.533333 597.333333 631.04 599.466667 701.013333 645.12 748.373333 697.173333 761.6 749.226667 774.826667 809.386667 758.186667 841.386667 709.12 874.666667 659.2 869.12 588.8 843.946667 520.96 818.346667 452.693333 770.986667 385.28 704 343.04 638.293333 302.08 562.773333 285.866667 490.666667 290.986667M506.026667 394.666667 506.026667 395.093333C430.08 397.653333 354.133333 436.906667 310.613333 519.68 254.293333 625.92 279.893333 734.293333 317.44 812.373333 355.413333 890.88 407.04 942.933333 407.04 942.933333 417.28 953.6 433.92 953.6 444.586667 943.36 455.253333 933.12 455.253333 917.333333 445.013333 905.813333 445.013333 905.813333 399.36 858.88 365.653333 789.333333 331.946667 719.786667 311.466667 631.893333 357.546667 544.853333 405.333333 455.253333 490.666667 433.493333 565.76 455.253333 641.706667 477.44 705.28 543.573333 704 641.28 702.293333 656.213333 712.96 669.013333 727.893333 669.866667 742.4 671.146667 755.2 660.053333 756.48 642.56 759.04 520.533333 677.12 432.213333 580.693333 404.053333 556.373333 397.226667 531.2 393.813333 506.026667 394.666667M515.413333 608C500.48 608.426667 488.96 620.8 489.386667 635.306667 489.386667 635.306667 490.666667 698.453333 525.226667 759.466667 561.066667 820.48 637.013333 878.506667 769.28 866.133333 783.786667 865.28 795.306667 853.333333 794.453333 837.973333 793.6 823.04 780.8 811.946667 764.16 813.226667 648.106667 823.893333 599.04 779.946667 571.306667 732.586667 543.573333 685.653333 542.72 634.88 542.72 634.88 542.72 619.946667 530.773333 608 515.413333 608Z" p-id="5711"></path></svg>