<?xml version="1.0" standalone="no"?><!DOCTYPE svg PUBLIC "-//W3C//DTD SVG 1.1//EN" "http://www.w3.org/Graphics/SVG/1.1/DTD/svg11.dtd"><svg t="1649401779147" class="icon" viewBox="0 0 1024 1024" version="1.1" xmlns="http://www.w3.org/2000/svg" p-id="3629" xmlns:xlink="http://www.w3.org/1999/xlink" width="200" height="200"><defs><style type="text/css">@font-face { font-family: Roboto; src: url("chrome-extension://mcgbeeipkmelnpldkobichboakdfaeon/css/Roboto-Regular.ttf"); }
@font-face { font-family: feedback-iconfont; src: url("//at.alicdn.com/t/font_1031158_u69w8yhxdu.woff2?t=1630033759944") format("woff2"), url("//at.alicdn.com/t/font_1031158_u69w8yhxdu.woff?t=1630033759944") format("woff"), url("//at.alicdn.com/t/font_1031158_u69w8yhxdu.ttf?t=1630033759944") format("truetype"); }
</style></defs><path d="M179.712 501.28896h264.47872a20.48 20.48 0 0 0 20.48-20.48V216.33024a20.48 20.48 0 0 0-20.48-20.48H179.712a20.48 20.48 0 0 0-20.48 20.48v264.47872a20.48 20.48 0 0 0 20.48 20.48z m20.48-264.47872h223.51872v223.51872H200.192V236.81024zM529.63328 501.28896h264.47872a20.48 20.48 0 0 0 20.48-20.48V216.33024a20.48 20.48 0 0 0-20.48-20.48H529.63328a20.48 20.48 0 0 0-20.48 20.48v264.47872a20.48 20.48 0 0 0 20.48 20.48z m20.48-264.47872h223.51872v223.51872H550.11328V236.81024zM179.712 851.21024h264.47872a20.48 20.48 0 0 0 20.48-20.48V566.23104a20.48 20.48 0 0 0-20.48-20.48H179.712a20.48 20.48 0 0 0-20.48 20.48v264.47872a20.48 20.48 0 0 0 20.48 20.50048z m20.48-264.4992h223.51872v223.51872H200.192V586.71104zM509.15328 830.73024a20.48 20.48 0 0 0 20.48 20.48h264.47872a20.48 20.48 0 0 0 20.48-20.48V566.23104a20.48 20.48 0 0 0-20.48-20.48H529.63328a20.48 20.48 0 0 0-20.48 20.48v264.4992z m40.96-244.0192h223.51872v223.51872H550.11328V586.71104z" fill="" p-id="3630"></path></svg>