<?xml version="1.0" standalone="no"?><!DOCTYPE svg PUBLIC "-//W3C//DTD SVG 1.1//EN" "http://www.w3.org/Graphics/SVG/1.1/DTD/svg11.dtd"><svg t="1665650127685" class="icon" viewBox="0 0 1024 1024" version="1.1" xmlns="http://www.w3.org/2000/svg" p-id="7375" xmlns:xlink="http://www.w3.org/1999/xlink" width="200" height="200"><path d="M512 580.266667h-6.826667c-6.826667-3.413333-10.24-10.24-10.24-17.066667v-512c0-10.24 6.826667-17.066667 17.066667-17.066667s17.066667 6.826667 17.066667 17.066667v471.04l54.613333-54.613333c6.826667-6.826667 17.066667-6.826667 23.893333 0s6.826667 17.066667 0 23.893333l-85.333333 85.333333s-6.826667 3.413333-10.24 3.413334z" fill="" p-id="7376"></path><path d="M512 580.266667c-3.413333 0-10.24 0-13.653333-3.413334l-85.333334-85.333333c-6.826667-6.826667-6.826667-17.066667 0-23.893333s17.066667-6.826667 23.893334 0l85.333333 85.333333c6.826667 6.826667 6.826667 17.066667 0 23.893333 0 3.413333-6.826667 3.413333-10.24 3.413334z" fill="" p-id="7377"></path><path d="M901.12 989.866667H122.88C64.853333 989.866667 17.066667 942.08 17.066667 887.466667v-273.066667c0-30.72 10.24-61.44 27.306666-85.333333l139.946667-204.8C221.866667 273.066667 286.72 238.933333 351.573333 238.933333h71.68c10.24 0 17.066667 6.826667 17.066667 17.066667s-6.826667 17.066667-17.066667 17.066667h-71.68c-54.613333 0-109.226667 27.306667-139.946666 71.68l-139.946667 204.8c-13.653333 20.48-23.893333 40.96-23.893333 64.853333v273.066667c0 37.546667 34.133333 68.266667 71.68 68.266666h778.24c37.546667 0 71.68-30.72 71.68-68.266666v-276.48c0-20.48-6.826667-40.96-20.48-61.44l-157.013334-225.28c-23.893333-34.133333-54.613333-51.2-92.16-51.2h-105.813333c-10.24 0-17.066667-6.826667-17.066667-17.066667s13.653333-17.066667 23.893334-17.066667h105.813333c47.786667 0 88.746667 23.893333 119.466667 64.853334l157.013333 225.28c17.066667 23.893333 23.893333 51.2 23.893333 78.506666V887.466667c0 54.613333-47.786667 102.4-105.813333 102.4z" fill="" p-id="7378"></path><path d="M689.493333 785.066667H334.506667c-58.026667 0-105.813333-47.786667-105.813334-102.4 0-17.066667-3.413333-68.266667-54.613333-68.266667H51.2c-10.24 0-17.066667-6.826667-17.066667-17.066667s6.826667-17.066667 17.066667-17.066666h122.88c51.2 0 88.746667 40.96 88.746667 102.4 0 37.546667 34.133333 68.266667 71.68 68.266666h354.986666c37.546667 0 71.68-30.72 71.68-68.266666 0-54.613333 47.786667-102.4 105.813334-102.4h105.813333c10.24 0 17.066667 6.826667 17.066667 17.066666s-6.826667 17.066667-17.066667 17.066667h-105.813333c-37.546667 0-71.68 30.72-71.68 68.266667 0 54.613333-47.786667 102.4-105.813334 102.4z" fill="" p-id="7379"></path></svg>