<?xml version="1.0" standalone="no"?><!DOCTYPE svg PUBLIC "-//W3C//DTD SVG 1.1//EN" "http://www.w3.org/Graphics/SVG/1.1/DTD/svg11.dtd"><svg t="1656064572787" class="icon" viewBox="0 0 1024 1024" version="1.1" xmlns="http://www.w3.org/2000/svg" p-id="5095" xmlns:xlink="http://www.w3.org/1999/xlink" width="300" height="300"><defs></defs><path d="M296.96 266.24c-135.68 0-245.76 110.08-245.76 245.76s110.08 245.76 245.76 245.76 245.76-110.08 245.76-245.76-110.08-245.76-245.76-245.76z m0 409.6c-90.624 0-163.84-73.216-163.84-163.84s73.216-163.84 163.84-163.84 163.84 73.216 163.84 163.84-73.216 163.84-163.84 163.84z" fill="#353535" p-id="5096"></path><path d="M481.28 501.76c0-16.896 13.824-30.72 30.72-30.72h430.08c16.896 0 30.72 13.824 30.72 30.72v20.48c0 16.896-13.824 30.72-30.72 30.72h-430.08c-16.896 0-30.72-13.824-30.72-30.72v-20.48zM757.76 634.88c0-16.896 13.824-30.72 30.72-30.72h153.6c16.896 0 30.72 13.824 30.72 30.72v20.48c0 16.896-13.824 30.72-30.72 30.72h-153.6c-16.896 0-30.72-13.824-30.72-30.72v-20.48z" fill="#353535" p-id="5097"></path></svg>