<?xml version="1.0" standalone="no"?><!DOCTYPE svg PUBLIC "-//W3C//DTD SVG 1.1//EN" "http://www.w3.org/Graphics/SVG/1.1/DTD/svg11.dtd"><svg t="1668678500051" class="icon" viewBox="0 0 1024 1024" version="1.1" xmlns="http://www.w3.org/2000/svg" p-id="6350" xmlns:xlink="http://www.w3.org/1999/xlink" width="200" height="200"><path d="M972.8 217.6H503.04L451.328 128a25.6 25.6 0 0 0-22.144-12.8H51.2c-28.224 0-51.2 22.976-51.2 51.2v588.8c0 28.224 22.976 51.2 51.2 51.2h481.216l37.952 87.04a25.6 25.6 0 0 0 23.488 15.36H972.8c28.224 0 51.2-22.976 51.2-51.2V268.8c0-28.224-22.976-51.2-51.2-51.2zM51.2 166.4h363.2l339.904 588.8H51.2V166.4z m651.776 406.272z m-3.136-14.272l41.216-114.496c1.856-5.056 3.52-12.288 4.992-21.632h1.024c1.728 10.24 3.328 17.472 4.8 21.632l46.784 128.832h-90.56l-8.256-14.336z m-9.6 248l-83.712 41.856-18.24-41.856h101.952z m282.56 51.2h-270.464l107.776-53.888-0.064-0.128a25.408 25.408 0 0 0 10.816-35.584L728.32 607.68h82.752l31.616 84.8h44.224l-118.016-309.824h-42.816l-50.752 133.248L532.608 268.8H972.8v588.8z" p-id="6351"></path><path d="M346.112 439.744c-2.88-9.024-9.408-16.384-20.096-22.144l-3.264 2.432a36.352 36.352 0 0 1 3.264 18.048c-16 0-37.696 0-67.2 9.024 0.832-19.264 1.664-37.696 3.264-52.032 27.072-2.88 58.176-7.36 83.2-12.672 37.696-7.808 62.72-13.12 62.72-28.288 0-16-32.384-22.144-52.864-24.576l-1.664 1.216c-3.712 18.816-63.488 28.672-86.848 31.552 1.664-9.856 2.88-18.432 4.48-25.408 2.048-9.024 9.856-15.552 9.856-22.144 0-13.12-20.48-25.408-51.2-25.408-13.12 0-26.624 8.192-31.552 18.816l0.832 2.048c25.408-2.048 29.504 4.928 29.504 20.864 0 7.36-0.384 22.144-0.832 35.648-9.856 0.384-21.312 1.216-30.336 1.216-23.808 0-39.744-4.48-48.768-13.952l-3.712 3.712c5.76 20.864 24.96 40.192 58.624 40.192 7.36 0 15.552-0.384 23.36-0.832-0.384 18.816-0.384 39.744-0.832 59.84-62.272 26.24-100.352 74.56-100.352 123.776 0 30.72 25.408 44.288 47.104 44.288 31.104 0 59.84-13.12 85.248-31.936 6.976 9.408 14.784 13.12 19.712 13.12 13.504 0 17.6-15.552 17.6-23.36 0-5.76-2.88-10.624-6.528-17.216 38.144-39.744 60.224-87.296 60.224-106.944v-3.264c42.176 10.624 63.104 41.792 63.104 82.752-0.384 50.432-43.456 95.104-135.232 108.224l2.432 7.808c129.472-11.456 180.288-53.248 180.288-113.92-0.064-55.808-47.168-92.672-113.536-100.48z m-157.696 145.92c-19.264 0-25.024-5.312-25.024-22.144 0-31.168 22.912-61.888 62.72-85.632 0 33.6 3.264 61.056 13.12 86.016-17.664 13.12-36.096 21.76-50.816 21.76z m82.752-49.216c-12.288-27.456-12.288-57.792-12.288-75.008 16-5.76 38.528-10.24 54.528-10.24 2.88 0 6.976 0 10.624 0.384-6.528 24.96-27.904 61.056-52.864 84.8z" p-id="6352"></path></svg>