<?xml version="1.0" standalone="no"?><!DOCTYPE svg PUBLIC "-//W3C//DTD SVG 1.1//EN" "http://www.w3.org/Graphics/SVG/1.1/DTD/svg11.dtd"><svg t="1669000723503" class="icon" viewBox="0 0 1024 1024" version="1.1" xmlns="http://www.w3.org/2000/svg" p-id="4184" xmlns:xlink="http://www.w3.org/1999/xlink" width="200" height="200"><path d="M544 896a32 32 0 0 1-32 32H341.333333A202.922667 202.922667 0 0 1 138.666667 725.333333V298.666667A202.922667 202.922667 0 0 1 341.333333 96h170.666667a32 32 0 0 1 0 64H341.333333A138.837333 138.837333 0 0 0 202.666667 298.666667v426.666666A138.837333 138.837333 0 0 0 341.333333 864h170.666667a32 32 0 0 1 32 32z m331.946667-406.613333l-170.666667-170.666667a32 32 0 1 0-45.226667 45.269333l116.010667 116.010667H426.666667a32 32 0 0 0 0 64h349.397333l-116.010667 116.053333a32 32 0 0 0 45.226667 45.269334l170.666667-170.666667a32 32 0 0 0 0-45.269333z" fill="#41416E" p-id="4185"></path></svg>