<?xml version="1.0" standalone="no"?><!DOCTYPE svg PUBLIC "-//W3C//DTD SVG 1.1//EN" "http://www.w3.org/Graphics/SVG/1.1/DTD/svg11.dtd"><svg t="1653364634382" class="icon" viewBox="0 0 1024 1024" version="1.1" xmlns="http://www.w3.org/2000/svg" p-id="11566" xmlns:xlink="http://www.w3.org/1999/xlink" width="300" height="300"><defs> </defs><path d="M847.432609 559.26242l0-32.011064-0.00307 0 0-47.124274c0-44.652989-35.786041-80.81663-79.977519-80.81663l-47.979758 0 0-47.983851c0-97.179296-78.776158-175.951361-175.951361-175.951361l-31.991622 0c-97.179296 0-175.951361 78.772065-175.951361 175.951361l0 47.983851-0.007163 0-47.983851 0c-44.184315 0-79.977519 36.163641-79.977519 80.81663L207.609385 734.355227c0 44.676525 35.792181 80.840166 79.977519 80.840166l479.864092 0c44.191478 0 79.977519-36.163641 79.977519-80.840166l0-47.124274 0.00307 0L847.431585 655.233192l0-0.001023-0.002047 0 0-95.969749L847.432609 559.26242zM367.564423 351.307158c0-79.509868 64.457034-143.953599 143.959739-143.953599l31.994692 0c79.502705 0 143.956669 64.443731 143.956669 143.953599l0 48.003294L367.564423 399.310452 367.564423 351.307158zM815.437917 527.252379l-95.966679 0-31.994692 0 0 32.011064 0 95.969749 0 31.997762 31.994692 0 95.966679 0 0 39.557948c0 31.240515-21.451568 56.358589-48.158836 56.358589L287.761889 783.14749c-26.711362 0-48.161906-25.118074-48.161906-56.358589L239.599983 591.345116l0-0.363274L239.599983 473.611691c0-23.430642 20.62576-42.268686 46.306652-42.268686l49.67026 0 0-0.060375 31.987528 0 319.912124 0 31.994692 0 0 0.060375 49.66412 0c25.679869 0 46.302559 18.838044 46.302559 42.268686L815.437917 527.252379zM815.436894 591.345116l0 63.888076-95.966679 0 0-63.888076 0.005117 0 0-0.363274-0.005117 0 0-31.718399 95.966679 0 0 31.718399-0.010233-0.007163 0 0.363274L815.436894 591.345116z" p-id="11567"></path></svg>