<?xml version="1.0" standalone="no"?><!DOCTYPE svg PUBLIC "-//W3C//DTD SVG 1.1//EN" "http://www.w3.org/Graphics/SVG/1.1/DTD/svg11.dtd"><svg t="1652148503449" class="icon" viewBox="0 0 1024 1024" version="1.1" xmlns="http://www.w3.org/2000/svg" p-id="3024" xmlns:xlink="http://www.w3.org/1999/xlink" width="200" height="200"><defs> </defs><path d="M512 559.2c17.7 0 32-14.3 32-32v-374c0-17.7-14.3-32-32-32s-32 14.3-32 32v374c0 17.7 14.3 32 32 32z" p-id="3025"></path><path d="M856.7 328.6C831.3 275.8 794 228.7 749 192.3c-13.7-11.1-33.9-9-45 4.8-11.1 13.7-9 33.9 4.8 45 78.8 63.7 124 159.7 124 263.3 0 183.9-143.9 333.4-320.8 333.4S191.2 689.2 191.2 505.4c0-70.1 20.7-137.2 59.9-194 18.1-26.2 39.6-49.5 64.1-69.3 13.7-11.1 15.9-31.3 4.8-45-11.1-13.7-31.3-15.9-45-4.8-29.3 23.7-55 51.5-76.6 82.7-46.6 67.5-71.2 147.2-71.2 230.4 0 53.5 10.1 105.4 30.1 154.3 19.3 47.3 47 89.8 82.2 126.3 35.3 36.6 76.5 65.3 122.3 85.4 47.6 20.8 98.1 31.4 150.2 31.4s102.6-10.6 150.2-31.4c45.8-20.1 87-48.8 122.3-85.4 35.2-36.5 62.9-79 82.2-126.3 20-48.9 30.1-100.8 30.1-154.3 0-62.1-13.5-121.6-40.1-176.8z" p-id="3026"></path></svg>