<?xml version="1.0" standalone="no"?>
<!DOCTYPE svg PUBLIC "-//W3C//DTD SVG 1.1//EN" "http://www.w3.org/Graphics/SVG/1.1/DTD/svg11.dtd">
<svg t="1648612634560" class="icon" viewBox="0 0 1024 1024" version="1.1" xmlns="http://www.w3.org/2000/svg" p-id="5128" xmlns:xlink="http://www.w3.org/1999/xlink" width="200" height="200">
	<defs>
	</defs>
	<path d="M1023.981595 261.403092c0-21.859999-8.63357-41.636899-22.4088-56.71553-0.229225-0.299498-0.281093-0.652537-0.528723-0.953708-0.229225-0.264361-0.547127-0.371444-0.794757-0.617401-15.662568-16.387052-37.73506-26.750683-62.313965-26.750683L86.062976 176.365771c-24.578905 0-46.651397 10.363631-62.349102 26.750683-0.229225 0.245956-0.565532 0.353039-0.794757 0.635806-0.24763 0.282766-0.299498 0.652537-0.528723 0.953708C8.635243 219.784599 0 239.543093 0 261.403092l0 501.192142c0 22.390395 8.988283 42.642475 23.360835 57.846594 0.282766 0.31623 0.371444 0.706079 0.689347 1.00725 0.10541 0.10541 0.229225 0.122142 0.336308 0.229225 15.662568 15.963739 37.469026 25.957599 61.678159 25.957599l851.872375 0c24.209133 0 46.033996-10.010591 61.678159-25.972657 0.10541-0.090351 0.229225-0.123815 0.334635-0.212493 0.301171-0.282766 0.388176-0.670942 0.670942-0.972113 14.390957-15.202446 23.37924-35.472931 23.37924-57.881731L1024 261.403092 1023.981595 261.403092zM688.823384 485.512842l295.094095-244.681406c2.894588 6.286109 4.607917 13.224756 4.607917 20.569983l0 501.192142c0 6.640822-1.377021 12.943663-3.761292 18.752918L688.823384 485.512842zM937.935351 211.413716c7.433906 0 14.444499 1.694924 20.817613 4.556049l-446.7538 370.403591L65.245363 215.969765c6.374787-2.859452 13.38538-4.556049 20.817613-4.556049L937.935351 211.413716zM39.235896 781.331421c-2.384271-5.79085-3.761292-12.112096-3.761292-18.752918L35.474604 261.403092c0-7.345227 1.713329-14.285547 4.607917-20.569983l295.094095 244.681406L39.235896 781.331421zM86.062976 812.567879c-8.191853 0-15.82152-2.11991-22.671488-5.543221l299.047801-298.92566 138.170588 114.563797c3.284438 2.73731 7.345227 4.114331 11.389285 4.114331 4.044058 0 8.104848-1.377021 11.389285-4.114331l138.170588-114.563797 299.047801 298.92566c-6.851642 3.424984-14.477962 5.543221-22.673161 5.543221L86.062976 812.567879z" p-id="5129">
	</path>
</svg>
