<?xml version="1.0" standalone="no"?><!DOCTYPE svg PUBLIC "-//W3C//DTD SVG 1.1//EN" "http://www.w3.org/Graphics/SVG/1.1/DTD/svg11.dtd"><svg t="1652152360520" class="icon" viewBox="0 0 1024 1024" version="1.1" xmlns="http://www.w3.org/2000/svg" p-id="2063" xmlns:xlink="http://www.w3.org/1999/xlink" width="200" height="200"><defs> </defs><path d="M35.2 56.96A1.0001 1.0001 0 0 0 19.2 77.44L19.2 808.32C19.2 895.28062 64.424724 944.321966 108.8 966.4 153.175276 988.478034 197.12 987.52 197.12 987.52L787.84 987.52 826.88 987.52 826.88 985.6C836.755046 986.730906 847.36 987.52 847.36 987.52 847.36 987.52 886.698394 987.738522 926.08 965.12 964.516127 943.044506 1002.33857 896.351949 1004.16 815.36A1.0001 1.0001 0 0 0 1004.8 814.08C1004.80766 813.638287 1004.794511 813.243761 1004.8 812.8A1.0001 1.0001 0 0 0 1004.8 809.6L1004.8 295.68A1.0001 1.0001 0 0 0 1004.8 295.04C1004.8 295.04 1005.082624 271.044895 992.64 246.4 980.197478 221.755105 951.149834 195.2 905.6 195.2L905.6 194.56 711.68 194.56 711.68 235.52 825.6 235.52C823.121039 239.039816 821.006479 242.229658 819.2 245.76 806.717071 270.154998 806.4 294.4 806.4 294.4L806.4 791.04A1.0001 1.0001 0 1 0 847.36 791.04L847.36 295.04 847.36 294.4C847.386624 293.814272 848.159539 279.017124 855.68 264.32 863.349391 249.331958 874.128814 236.16 905.6 236.16 936.973046 236.16 947.799962 249.668895 955.52 264.96 963.094385 279.962583 964.454236 295.097364 964.48 295.68L963.84 295.68 963.84 809.6C963.84 882.459955 934.744474 913.181082 905.6 929.92 876.455526 946.658918 847.36 946.56 847.36 946.56 847.36 946.56 812.752097 946.077696 778.24 928.64 743.727903 911.202243 710.4 880.55978 710.4 808.32L710.4 77.44A1.0001 1.0001 0 0 0 689.92 56.96L39.68 56.96A1.0001 1.0001 0 0 0 35.2 56.96zM60.16 97.92 669.44 97.92 669.44 808.32C669.44 875.688182 698.001777 919.728353 731.52 946.56L197.12 946.56A1.0001 1.0001 0 0 0 196.48 946.56C196.48 946.56 187.70115 946.661192 174.72 944.64 168.229425 943.629394 161.05207 941.882061 152.96 939.52 144.86793 937.157939 135.957701 934.197596 127.36 929.92 123.06115 927.781192 118.748434 925.506888 114.56 922.88 85.240963 904.491807 60.16 872.686428 60.16 808.32L60.16 97.92zM142.08 225.28A1.004385 1.004385 0 0 0 147.84 266.24L551.68 266.24A1.0001 1.0001 0 1 0 551.68 225.28L147.84 225.28A1.0001 1.0001 0 0 0 145.92 225.28 1.001098 1.001098 0 0 0 144 225.28 1.004385 1.004385 0 0 0 142.08 225.28zM142.08 307.2A1.004385 1.004385 0 0 0 147.84 348.16L551.68 348.16A1.0001 1.0001 0 1 0 551.68 307.2L147.84 307.2A1.0001 1.0001 0 0 0 145.92 307.2 1.001098 1.001098 0 0 0 144 307.2 1.004385 1.004385 0 0 0 142.08 307.2zM151.68 471.04A1.004385 1.004385 0 0 0 157.44 512L296.32 512A1.0001 1.0001 0 1 0 296.32 471.04L157.44 471.04A1.0001 1.0001 0 0 0 155.52 471.04 1.001098 1.001098 0 0 0 153.6 471.04 1.004385 1.004385 0 0 0 151.68 471.04zM387.84 471.04A1.004385 1.004385 0 0 0 393.6 512L551.68 512A1.0001 1.0001 0 1 0 551.68 471.04L393.6 471.04A1.0001 1.0001 0 0 0 391.68 471.04 1.001098 1.001098 0 0 0 389.76 471.04 1.004385 1.004385 0 0 0 387.84 471.04zM151.68 552.96A1.004385 1.004385 0 0 0 157.44 593.92L296.32 593.92A1.0001 1.0001 0 1 0 296.32 552.96L157.44 552.96A1.0001 1.0001 0 0 0 155.52 552.96 1.001098 1.001098 0 0 0 153.6 552.96 1.004385 1.004385 0 0 0 151.68 552.96zM387.84 552.96A1.004385 1.004385 0 0 0 393.6 593.92L551.68 593.92A1.0001 1.0001 0 1 0 551.68 552.96L393.6 552.96A1.0001 1.0001 0 0 0 391.68 552.96 1.001098 1.001098 0 0 0 389.76 552.96 1.004385 1.004385 0 0 0 387.84 552.96zM387.84 630.4A1.009839 1.009839 0 1 0 393.6 671.36L551.68 671.36A1.0001 1.0001 0 1 0 551.68 630.4L393.6 630.4A1.0001 1.0001 0 0 0 389.76 630.4 1.004385 1.004385 0 0 0 387.84 630.4zM151.68 634.88A1.004385 1.004385 0 0 0 157.44 675.84L296.32 675.84A1.0001 1.0001 0 1 0 296.32 634.88L157.44 634.88A1.0001 1.0001 0 0 0 155.52 634.88 1.001098 1.001098 0 0 0 153.6 634.88 1.004385 1.004385 0 0 0 151.68 634.88zM387.84 712.32A1.009839 1.009839 0 1 0 393.6 753.28L551.68 753.28A1.0001 1.0001 0 1 0 551.68 712.32L393.6 712.32A1.0001 1.0001 0 0 0 389.76 712.32 1.004385 1.004385 0 0 0 387.84 712.32zM151.68 716.8A1.004385 1.004385 0 0 0 157.44 757.76L296.32 757.76A1.0001 1.0001 0 1 0 296.32 716.8L157.44 716.8A1.0001 1.0001 0 0 0 155.52 716.8 1.001098 1.001098 0 0 0 153.6 716.8 1.004385 1.004385 0 0 0 151.68 716.8zM387.84 789.12A1.004385 1.004385 0 0 0 393.6 830.08L551.68 830.08A1.0001 1.0001 0 1 0 551.68 789.12L393.6 789.12A1.0001 1.0001 0 0 0 391.68 789.12 1.001098 1.001098 0 0 0 389.76 789.12 1.004385 1.004385 0 0 0 387.84 789.12zM151.68 798.72A1.004385 1.004385 0 0 0 157.44 839.68L296.32 839.68A1.0001 1.0001 0 1 0 296.32 798.72L157.44 798.72A1.0001 1.0001 0 0 0 155.52 798.72 1.001098 1.001098 0 0 0 153.6 798.72 1.004385 1.004385 0 0 0 151.68 798.72z" p-id="2064"></path></svg>