<?xml version="1.0" standalone="no"?><!DOCTYPE svg PUBLIC "-//W3C//DTD SVG 1.1//EN" "http://www.w3.org/Graphics/SVG/1.1/DTD/svg11.dtd"><svg t="1659585142150" class="icon" viewBox="0 0 1024 1024" version="1.1" xmlns="http://www.w3.org/2000/svg" p-id="2261" xmlns:xlink="http://www.w3.org/1999/xlink" width="200" height="200"><defs><style type="text/css">@font-face { font-family: feedback-iconfont; src: url("//at.alicdn.com/t/font_1031158_u69w8yhxdu.woff2?t=1630033759944") format("woff2"), url("//at.alicdn.com/t/font_1031158_u69w8yhxdu.woff?t=1630033759944") format("woff"), url("//at.alicdn.com/t/font_1031158_u69w8yhxdu.ttf?t=1630033759944") format("truetype"); }
</style></defs><path d="M872.448 698.368l-37.888-60.416c-9.216-15.36-18.432-45.056-20.48-63.488l-16.384-211.968C788.48 245.76 706.56 143.36 593.92 104.448 583.68 72.704 552.96 51.2 517.12 51.2c-34.816 0-65.536 22.528-76.8 53.248C327.68 143.36 245.76 245.76 236.544 362.496l-16.384 211.968c-2.048 19.456-11.264 49.152-20.48 63.488l-37.888 60.416c-20.48 32.768-24.576 65.536-10.24 91.136s44.032 39.936 82.944 39.936h565.248c38.912 0 67.584-14.336 81.92-39.936 14.336-24.576 11.264-57.344-9.216-91.136z m-26.624 72.704c-6.144 12.288-23.552 18.432-46.08 18.432H234.496c-23.552 0-39.936-7.168-47.104-19.456-6.144-12.288-3.072-30.72 9.216-50.176l37.888-60.416c12.288-20.48 23.552-56.32 26.624-81.92l16.384-211.968c8.192-103.424 84.992-195.584 186.368-225.28 7.168-2.048 13.312-9.216 14.336-16.384 3.072-17.408 19.456-31.744 38.912-31.744s36.864 14.336 38.912 31.744c1.024 8.192 7.168 14.336 14.336 16.384 101.376 29.696 178.176 122.88 186.368 225.28l16.384 211.968c2.048 25.6 14.336 61.44 26.624 81.92l37.888 60.416c12.288 20.48 15.36 38.912 8.192 51.2zM631.808 880.64c-5.12 9.216-55.296 92.16-114.688 92.16s-109.568-82.944-114.688-92.16c-6.144-10.24-2.048-22.528 7.168-27.648 10.24-6.144 22.528-2.048 27.648 7.168 14.336 23.552 51.2 71.68 79.872 71.68s65.536-48.128 79.872-71.68c6.144-10.24 18.432-13.312 27.648-7.168 10.24 5.12 13.312 18.432 7.168 27.648z" p-id="2262"></path></svg>