<?xml version="1.0" standalone="no"?><!DOCTYPE svg PUBLIC "-//W3C//DTD SVG 1.1//EN" "http://www.w3.org/Graphics/SVG/1.1/DTD/svg11.dtd"><svg t="1665729032398" class="icon" viewBox="0 0 1024 1024" version="1.1" xmlns="http://www.w3.org/2000/svg" p-id="14571" xmlns:xlink="http://www.w3.org/1999/xlink" width="200" height="200"><path d="M908.8 115.2c-32-32-76.8-51.2-124.8-51.2s-92.8 19.2-124.8 51.2c-12.8 12.8-12.8 32 0 44.8l204.8 204.8c6.4 6.4 16 9.6 22.4 9.6s16-3.2 22.4-9.6c32-32 51.2-76.8 51.2-124.8s-19.2-92.8-51.2-124.8z m-25.6 179.2l-150.4-150.4c41.6-22.4 96-16 131.2 19.2 35.2 32 41.6 86.4 19.2 131.2zM630.4 201.6c-12.8-12.8-32-12.8-44.8 0l-512 512c-6.4 6.4-9.6 12.8-9.6 22.4v160c0 35.2 28.8 64 64 64h160c9.6 0 16-3.2 22.4-9.6l512-512c12.8-12.8 12.8-32 0-44.8l-192-192zM275.2 896H128v-147.2L275.2 896z m44.8-44.8L172.8 704 608 268.8l147.2 147.2L320 851.2z" p-id="14572"></path></svg>