<?xml version="1.0" standalone="no"?><!DOCTYPE svg PUBLIC "-//W3C//DTD SVG 1.1//EN" "http://www.w3.org/Graphics/SVG/1.1/DTD/svg11.dtd"><svg t="1656557059888" class="icon" viewBox="0 0 1024 1024" version="1.1" xmlns="http://www.w3.org/2000/svg" p-id="2029" xmlns:xlink="http://www.w3.org/1999/xlink" width="200" height="200"><defs></defs><path d="M945.7 275.5H204.5V86.2h599.3v94.6c0 8.7 7.1 15.8 15.8 15.8s15.8-7.1 15.8-15.8V70.4c0-8.7-7.1-15.8-15.8-15.8H188.7c-8.7 0-15.8 7.1-15.8 15.8v205H78.3c-8.7 0-15.8 7.1-15.8 15.8v662.3c0 8.7 7.1 15.8 15.8 15.8h867.3c8.7 0 15.8-7.1 15.8-15.8V291.2c0-8.7-7-15.7-15.7-15.7zM720.5 937.8h-417V721.9c0-39.1 31.8-71 71-71h275.2c39.1 0 71 31.8 71 71v215.9z m209.4 0H752.1V721.9c0-56.5-46-102.5-102.5-102.5H374.4c-56.5 0-102.5 46-102.5 102.5v215.9H94.1V307h835.8v630.8z" p-id="2030"></path><path d="M512 589.8c64.9 0 117.7-52.8 117.7-117.7S576.9 354.3 512 354.3 394.3 407.1 394.3 472 447.1 589.8 512 589.8z m0-204c47.5 0 86.2 38.7 86.2 86.2s-38.7 86.2-86.2 86.2-86.2-38.7-86.2-86.2 38.7-86.2 86.2-86.2zM512 680.6c-8.7 0-15.8 7.1-15.8 15.8v142.7c0 8.7 7.1 15.8 15.8 15.8 8.7 0 15.8-7.1 15.8-15.8V696.3c0-8.7-7.1-15.7-15.8-15.7z" p-id="2031"></path></svg>