<?xml version="1.0" standalone="no"?><!DOCTYPE svg PUBLIC "-//W3C//DTD SVG 1.1//EN" "http://www.w3.org/Graphics/SVG/1.1/DTD/svg11.dtd"><svg t="1652324494301" class="icon" viewBox="0 0 1025 1024" version="1.1" xmlns="http://www.w3.org/2000/svg" p-id="18758" xmlns:xlink="http://www.w3.org/1999/xlink" width="300.29296875" height="300"><defs> </defs><path d="M508.213 4.492c-278.612 0.097-503.164 223.552-503.722 501.298-0.578 279.363 221.588 505.549 497.952 506.99 283.403 1.479 509.779-220.897 510.357-501.298 0.578-282.439-223.012-507.105-504.587-506.99zM510.059 948.124c-247.725 0.347-441.257-194.319-440.428-442.987 0.827-243.936 195.493-436.448 440.89-435.986 243.995 0.442 437.198 194.781 437.141 439.717-0.058 244.861-193.378 438.928-437.602 439.257zM459.19 425.034c0 54.196-0.499 108.41 0.172 162.606 0.442 35.579 19.808 47.138 55.388 46.175 36.33-0.979 35.964-21.942 36.829-47.31 3.25-95.198 6.134-190.453 11.981-285.537 2.557-41.732-4.558-62.562-55.004-62.525-50.83 0.038-57.773 21.674-54.716 63.024l5.346 123.565zM573.949 753.361c-6.134 39.868-28.078 61.388-66.331 62.099-35.329 0.655-60.965-18.519-63.984-53.024-3.423-38.944 22.464-60.503 60.214-62.965 38.656-2.501 60.273 20.272 70.099 53.887z" p-id="18759"></path></svg>